<svg width="60" height="60" viewBox="0 0 60 60" fill="none" xmlns="http://www.w3.org/2000/svg">
<g clip-path="url(#clip0_1282_18990)">
<path d="M56.0732 21.0414C57.1574 19.2993 58.0379 17.2154 58.132 14.9609C58.2087 13.1249 57.5296 11.3098 56.2687 9.98098C55.0241 8.66953 53.3521 7.93652 51.5606 7.91719C51.5358 7.91695 51.5115 7.91684 51.4868 7.91684C49.9095 7.91684 48.4171 8.46316 47.2212 9.46664C42.3115 5.67855 36.2208 3.59906 30 3.59906C25.9396 3.59906 21.901 4.48559 18.234 6.16758C18.0992 4.64062 17.4525 3.18059 16.3931 2.06414C15.1486 0.752578 13.4766 0.0198047 11.6853 0.00046875C11.6602 0.000117188 11.6359 0 11.6112 0C9.84752 0 8.18873 0.681328 6.93342 1.92316C5.66053 3.18234 4.95939 4.86211 4.95939 6.65262C4.95939 9.61219 6.34853 12.3006 7.85064 14.3426C6.08826 16.5752 4.68107 19.0454 3.66424 21.6939C3.49057 22.1464 3.71662 22.6541 4.16896 22.8279C4.27256 22.8675 4.37873 22.8864 4.48338 22.8864C4.83611 22.8864 5.16893 22.672 5.30299 22.323C6.20029 19.9859 7.42232 17.7966 8.94096 15.8014C8.91998 16.0082 8.9065 16.2163 8.9065 16.4234V20.688C8.9065 21.5282 9.36893 22.2918 10.1133 22.6813C10.4425 22.8536 10.8003 22.9386 11.1569 22.9386C11.6064 22.9386 12.054 22.803 12.439 22.5359L15.5848 20.3517C16.4651 19.7406 17.4968 19.4175 18.5687 19.4175H22.6173C24.1876 19.4175 25.664 18.806 26.7744 17.6957L30.7696 13.7005C32.112 12.358 32.1862 10.1857 30.9382 8.75473L28.9928 6.52406C28.7185 6.20953 28.608 5.78988 28.6737 5.39051C29.1153 5.36824 29.5574 5.35441 30 5.35441C35.7837 5.35441 41.4465 7.27195 46.0294 10.7661C45.2541 11.8734 44.8351 13.188 44.8351 14.5696C44.8351 15.7859 45.0711 16.9556 45.4518 18.0544C45.1929 19.9637 45.4724 21.9011 46.2621 23.6596L47.9698 27.4614C48.8843 29.4973 50.9174 30.8129 53.1495 30.8129C54.2821 30.8129 55.3777 30.4788 56.3175 29.8471L56.3719 29.8105C56.4205 30.4695 56.4451 31.1326 56.4451 31.7996C56.4451 46.3816 44.5819 58.2449 29.9999 58.2449C15.4179 58.2449 3.55467 46.3814 3.55467 31.7994C3.55467 29.7529 3.78916 27.7146 4.2517 25.7413C4.36232 25.2693 4.06947 24.7971 3.59756 24.6865C3.12564 24.5753 2.65326 24.8686 2.54275 25.3406C2.04939 27.4452 1.79932 29.6183 1.79932 31.7995C1.79932 39.3322 4.73275 46.414 10.0592 51.7404C15.3854 57.0667 22.4672 60 29.9999 60C37.5326 60 44.6144 57.0667 49.9406 51.7403C55.2671 46.4139 58.2005 39.332 58.2005 31.7994C58.2005 28.0718 57.4835 24.4545 56.0732 21.0414ZM8.16799 3.17098C9.09201 2.2568 10.3131 1.75535 11.6118 1.75535C11.6298 1.75535 11.648 1.75547 11.6662 1.7557C12.9784 1.76977 14.2049 2.30836 15.1197 3.27234C16.0555 4.25859 16.5597 5.6066 16.5027 6.9709C16.3395 10.8819 13.196 14.4023 11.852 15.7342C11.7197 15.8653 11.5046 15.8655 11.3729 15.735C9.97244 14.3471 6.71475 10.6839 6.71475 6.65262C6.71475 5.33449 7.23084 4.09805 8.16799 3.17098ZM27.6697 7.67766L29.6153 9.90844C30.2588 10.6464 30.2207 11.7668 29.5282 12.4591L25.5331 16.4543C24.7542 17.2332 23.7188 17.6621 22.6173 17.6621H18.5687C17.1374 17.6621 15.7594 18.0936 14.5838 18.9098L11.438 21.0939C11.2164 21.2481 11.007 21.1676 10.9271 21.1259C10.8474 21.0841 10.6621 20.9579 10.6621 20.688V17.3593C10.9594 17.5098 11.2855 17.5861 11.612 17.5861C12.1464 17.5861 12.6809 17.3844 13.0879 16.9812C14.7806 15.3035 17.543 12.0416 18.1453 8.15707C20.8769 6.78586 23.8535 5.89734 26.9031 5.5377C26.8846 6.30691 27.1457 7.0766 27.6697 7.67766ZM51.4874 9.67207C51.5054 9.67207 51.5236 9.67219 51.5417 9.67242C52.854 9.68648 54.0805 10.2252 54.9953 11.1892C55.9312 12.1754 56.4353 13.5234 56.3783 14.8876C56.2151 18.7986 53.0717 22.3191 51.7276 23.651C51.5953 23.7821 51.3802 23.7824 51.2486 23.6518C49.8481 22.2639 46.5905 18.6006 46.5905 14.5695C46.5905 13.2513 47.1066 12.0148 48.0437 11.0877C48.9676 10.1736 50.1886 9.67207 51.4874 9.67207ZM55.3381 28.3901C54.6887 28.8266 53.9319 29.0573 53.1495 29.0573C51.6075 29.0573 50.2028 28.1484 49.571 26.7418L47.8634 22.94C47.7138 22.607 47.5874 22.266 47.4822 21.9196C48.3481 23.1498 49.2756 24.168 50.013 24.8987C50.4195 25.3014 50.9533 25.5027 51.4873 25.5027C52.0217 25.5027 52.5562 25.301 52.9631 24.8978C53.5188 24.3471 54.1899 23.6246 54.8621 22.7666C55.4621 24.4151 55.8932 26.1109 56.1524 27.8426L55.3381 28.3901Z" fill="#0A76DB"/>
<path d="M51.488 18.4897C53.5301 18.4897 55.1914 16.8284 55.1914 14.7864C55.1914 12.7444 53.53 11.083 51.488 11.083C49.4459 11.083 47.7847 12.7444 47.7847 14.7864C47.7847 16.8284 49.4459 18.4897 51.488 18.4897ZM51.488 12.8382C52.5622 12.8382 53.436 13.7121 53.436 14.7863C53.436 15.8604 52.5622 16.7343 51.488 16.7343C50.4139 16.7343 49.54 15.8604 49.54 14.7863C49.54 13.7121 50.4139 12.8382 51.488 12.8382Z" fill="#F37224"/>
<path d="M38.1066 19.1912C36.8621 17.8796 35.1901 17.1466 33.3987 17.1273C33.3738 17.1271 33.3496 17.127 33.3249 17.127C31.5612 17.127 29.9024 17.8083 28.6471 19.0501C27.6979 19.9891 27.0672 21.1621 26.8075 22.4402C24.7916 22.3527 22.8363 23.2887 21.6478 24.9677L18.6988 29.1335C17.5479 30.7591 17.4046 32.8661 18.2929 34.6194C17.9178 35.4605 17.7188 36.378 17.7188 37.3276C17.7188 41.1938 20.0884 44.5961 21.9845 46.6998L21.7936 51.8881C21.7481 53.1253 22.3231 54.2927 23.3316 55.0109C23.9663 55.4629 24.7126 55.6891 25.4595 55.6891C26.1919 55.689 26.9248 55.4713 27.5523 55.0354L35.6312 49.4228C36.8892 48.5488 37.9756 47.4717 38.8603 46.2219L41.2994 42.7768C41.5794 42.3812 41.4858 41.8334 41.0901 41.5533C40.6945 41.2731 40.1466 41.3668 39.8666 41.7625L37.4276 45.2078C36.6608 46.2907 35.7196 47.224 34.6295 47.9813L26.5506 53.5938C25.8894 54.0529 25.0051 54.0478 24.3497 53.5811C23.8238 53.2065 23.5239 52.5977 23.5477 51.9525L23.6906 48.1464C23.9107 48.2214 24.1405 48.2611 24.3709 48.2611C24.9052 48.2611 25.4398 48.0594 25.8467 47.6561C27.6988 45.8204 30.8333 42.0887 31.0156 37.7191C31.0921 35.883 30.4129 34.0679 29.1519 32.7391C27.9074 31.4276 26.2354 30.6947 24.4439 30.6754C22.6578 30.6538 20.9651 31.339 19.6924 32.5983C19.6331 32.6569 19.5764 32.7173 19.5197 32.7778C19.3747 31.8724 19.5791 30.9277 20.1312 30.1478L23.0802 25.982C23.9114 24.808 25.2735 24.1495 26.682 24.1939C26.8706 28.5393 29.9762 32.2515 31.8506 34.1089C32.2572 34.5117 32.791 34.713 33.325 34.713C33.8595 34.713 34.394 34.5115 34.801 34.1081C35.5651 33.3507 36.5473 32.2699 37.4507 30.9554L42.0048 34.1794C42.5795 34.5863 42.9613 35.1925 43.0801 35.8867C43.1989 36.5807 43.0402 37.2796 42.6333 37.8541L41.993 38.7586C41.7129 39.1542 41.8065 39.702 42.2022 39.9821C42.3563 40.0911 42.5332 40.1436 42.7085 40.1436C42.9837 40.1436 43.2546 40.0146 43.4256 39.773L44.0659 38.8685C44.7437 37.9111 45.0081 36.747 44.8103 35.5907C44.6126 34.4345 43.9764 33.4245 43.019 32.7468L38.3758 29.4598C39.238 27.8916 39.8896 26.0931 39.9699 24.1711C40.0467 22.3351 39.3675 20.52 38.1066 19.1912ZM24.3712 32.4302C24.3892 32.4302 24.4074 32.4304 24.4253 32.4306C25.7377 32.4446 26.9642 32.9834 27.8789 33.9473C28.8148 34.9336 29.3189 36.2816 29.2621 37.6459C29.0988 41.557 25.9553 45.0772 24.6112 46.4093C24.4791 46.5404 24.2642 46.5405 24.1323 46.4099C22.7317 45.0222 19.4741 41.3592 19.4741 37.3276C19.4741 36.0096 19.9902 34.7732 20.9272 33.846C21.8514 32.9317 23.0725 32.4302 24.3712 32.4302ZM33.5656 32.8612C33.4335 32.9925 33.2183 32.9927 33.0865 32.8621C31.686 31.4741 28.4284 27.8108 28.4284 23.7797C28.4284 22.4616 28.9445 21.225 29.8817 20.2979C30.8057 19.3838 32.0268 18.8823 33.3254 18.8823C33.3435 18.8823 33.3617 18.8824 33.3797 18.8827C34.6921 18.8967 35.9186 19.4354 36.8333 20.3994C37.7692 21.3857 38.2733 22.7337 38.2164 24.0979C38.0531 28.009 34.9096 31.5293 33.5656 32.8612Z" fill="#F37224"/>
<path d="M36.1517 23.1186C35.6669 23.1186 35.2739 23.5115 35.2739 23.9963C35.2739 25.0705 34.4001 25.9443 33.3259 25.9443C32.2518 25.9443 31.3779 25.0705 31.3779 23.9963C31.3779 22.9222 32.2518 22.0483 33.3259 22.0483C33.4562 22.0483 33.5863 22.0612 33.7125 22.0866C34.1883 22.1814 34.6505 21.8741 34.746 21.399C34.8414 20.9237 34.5335 20.4611 34.0583 20.3655C33.8185 20.3173 33.572 20.293 33.3259 20.293C31.2838 20.293 29.6226 21.9543 29.6226 23.9963C29.6226 26.0383 31.2839 27.6997 33.3259 27.6997C35.368 27.6997 37.0293 26.0383 37.0293 23.9963C37.0294 23.5114 36.6365 23.1186 36.1517 23.1186Z" fill="#F37224"/>
<path d="M24.3713 41.2475C26.4134 41.2475 28.0747 39.5862 28.0747 37.5442C28.0747 35.5022 26.4133 33.8408 24.3713 33.8408C22.3293 33.8408 20.668 35.5022 20.668 37.5442C20.668 39.5862 22.3292 41.2475 24.3713 41.2475ZM24.3713 35.5961C25.4455 35.5961 26.3193 36.4699 26.3193 37.5441C26.3193 38.6182 25.4455 39.4921 24.3713 39.4921C23.2972 39.4921 22.4233 38.6182 22.4233 37.5441C22.4233 36.47 23.2972 35.5961 24.3713 35.5961Z" fill="#F37224"/>
<path d="M15.3155 6.86937C15.3155 4.82727 13.6542 3.16602 11.6122 3.16602C9.57018 3.16602 7.90869 4.82738 7.90869 6.86937C7.90869 8.91137 9.57006 10.5726 11.6121 10.5726C13.654 10.5726 15.3155 8.91137 15.3155 6.86937ZM9.66416 6.86937C9.66416 5.79523 10.538 4.92137 11.6122 4.92137C12.6863 4.92137 13.5602 5.79523 13.5602 6.86937C13.5602 7.94352 12.6863 8.81727 11.6122 8.81727C10.538 8.81727 9.66416 7.94352 9.66416 6.86937Z" fill="#F37224"/>
</g>
<defs>
<clipPath id="clip0_1282_18990">
<rect width="60" height="60" fill="white"/>
</clipPath>
</defs>
</svg>
