<svg width="60" height="60" viewBox="0 0 60 60" fill="none" xmlns="http://www.w3.org/2000/svg">
<g clip-path="url(#clip0_1282_18997)">
<path d="M51.0438 7.01465H2.94363C1.32047 7.01465 0 8.33512 0 9.95828V42.0251C0 43.6483 1.32047 44.9688 2.94363 44.9688H19.917L19.1497 51.1066H17.9749C17.4561 51.1066 17.0354 51.5271 17.0354 52.0461C17.0354 52.5648 17.456 52.9855 17.9749 52.9855H22.9854C23.5042 52.9855 23.9249 52.565 23.9249 52.0461C23.9249 51.5273 23.5043 51.1066 22.9854 51.1066H21.0434L21.8106 44.9688H22.9854C23.5042 44.9688 23.9249 44.5482 23.9249 44.0293C23.9249 43.5105 23.5043 43.0898 22.9854 43.0898H2.94363C2.35652 43.0898 1.87887 42.6121 1.87887 42.025V38.9561H22.9854C23.5042 38.9561 23.9249 38.5355 23.9249 38.0166C23.9249 37.4977 23.5043 37.0771 22.9854 37.0771H1.87887V9.95828C1.87887 9.37117 2.35652 8.89352 2.94363 8.89352H51.0438C51.6309 8.89352 52.1086 9.37117 52.1086 9.95828V30C52.1086 30.5188 52.5292 30.9395 53.0481 30.9395C53.5669 30.9395 53.9876 30.5189 53.9876 30V9.95828C53.9875 8.33512 52.667 7.01465 51.0438 7.01465Z" fill="#0A76DB"/>
<path d="M43.0275 25.0518H28.9983C27.3752 25.0518 26.0547 26.3722 26.0547 27.9954V50.0413C26.0547 51.6645 27.3752 52.9849 28.9983 52.9849H43.0275C44.6507 52.9849 45.9712 51.6645 45.9712 50.0413V27.9954C45.9712 26.3722 44.6507 25.0518 43.0275 25.0518ZM44.0923 50.0413C44.0923 50.6284 43.6147 51.1061 43.0275 51.1061H28.9983C28.4112 51.1061 27.9336 50.6284 27.9336 50.0413V48.9765H44.0922V50.0413H44.0923ZM44.0923 47.0977H27.9336V30.939H44.0922V47.0977H44.0923ZM44.0923 29.06H27.9336V27.9953C27.9336 27.4082 28.4112 26.9305 28.9983 26.9305H43.0275C43.6147 26.9305 44.0923 27.4082 44.0923 27.9953V29.06Z" fill="#F37224"/>
<path d="M57.0568 33.0693H51.0442C49.4211 33.0693 48.1006 34.3898 48.1006 36.013V50.0422C48.1006 51.6654 49.4211 52.9858 51.0442 52.9858H57.0568C58.6799 52.9858 60.0004 51.6654 60.0004 50.0422V36.013C60.0004 34.3898 58.6799 33.0693 57.0568 33.0693ZM58.1215 50.0422C58.1215 50.6293 57.6439 51.107 57.0568 51.107H51.0442C50.4571 51.107 49.9795 50.6293 49.9795 50.0422V48.9774H58.1214V50.0422H58.1215ZM58.1215 47.0986H49.9796V38.9566H58.1215V47.0986ZM58.1215 37.0777H49.9796V36.013C49.9796 35.4259 50.4572 34.9482 51.0443 34.9482H57.0569C57.644 34.9482 58.1216 35.4259 58.1216 36.013V37.0777H58.1215Z" fill="#F37224"/>
</g>
<defs>
<clipPath id="clip0_1282_18997">
<rect width="60" height="60" fill="white"/>
</clipPath>
</defs>
</svg>
