<svg width="60" height="60" viewBox="0 0 60 60" fill="none" xmlns="http://www.w3.org/2000/svg">
<g clip-path="url(#clip0_1282_18981)">
<path d="M41.3953 35.5427H39.1174C38.9432 34.5953 38.6938 33.6628 38.3725 32.7561L40.3433 31.6184C40.5454 31.5019 40.6925 31.3098 40.7529 31.0847C40.8134 30.8595 40.7816 30.6196 40.6651 30.4178L38.2195 26.1825C37.9767 25.7621 37.4393 25.6182 37.0191 25.8608L35.044 27.0009C34.419 26.2695 33.7368 25.5873 33.0053 24.9625L34.1454 22.9881C34.262 22.7862 34.2935 22.5462 34.2333 22.3211C34.1729 22.0959 34.0256 21.9039 33.8237 21.7874L29.5877 19.3421C29.1674 19.0992 28.63 19.2434 28.3871 19.6637L27.2491 21.6346C26.342 21.313 25.4092 21.0638 24.4617 20.8895V18.6123C24.4617 18.1268 24.0682 17.7334 23.5828 17.7334H18.6915C18.2061 17.7334 17.8126 18.1268 17.8126 18.6123V20.8895C16.8653 21.0638 15.9323 21.313 15.0252 21.6346L13.8872 19.6637C13.6444 19.2435 13.1067 19.0997 12.6866 19.3421L8.45063 21.7874C8.24871 21.9039 8.10141 22.0959 8.04105 22.3211C7.9807 22.5463 8.01234 22.7863 8.12895 22.9881L9.26906 24.9625C8.53746 25.5873 7.85531 26.2693 7.23035 27.0009L5.25527 25.8608C4.83492 25.6179 4.29738 25.762 4.05469 26.1824L1.60898 30.4177C1.49238 30.6197 1.46086 30.8596 1.52109 31.0847C1.58145 31.3098 1.72875 31.5019 1.93066 31.6184L3.90176 32.7561C3.5802 33.663 3.33082 34.5955 3.15668 35.5427H0.878906C0.393516 35.5427 0 35.9361 0 36.4216V41.312C0 41.7975 0.393516 42.1909 0.878906 42.1909H3.15668C3.33094 43.1381 3.58031 44.0706 3.90176 44.9775L1.93066 46.1153C1.72875 46.2318 1.58145 46.4238 1.52109 46.6489C1.46074 46.8742 1.49238 47.1141 1.60898 47.316L4.05469 51.5513C4.2975 51.9715 4.83481 52.1153 5.25527 51.8728L7.23035 50.7327C7.85531 51.4642 8.53758 52.1463 9.26906 52.7712L8.12895 54.7455C8.01234 54.9476 7.98082 55.1875 8.04105 55.4126C8.10141 55.6377 8.24871 55.8298 8.45063 55.9462L12.6866 58.3915C13.1067 58.6339 13.6443 58.4903 13.8872 58.0698L15.0252 56.0992C15.9322 56.4206 16.865 56.6699 17.8126 56.8441V59.1213C17.8126 59.6068 18.2061 60.0002 18.6915 60.0002H23.5828C24.0682 60.0002 24.4617 59.6068 24.4617 59.1213V56.8441C25.4093 56.6699 26.3421 56.4206 27.2491 56.0992L28.3871 58.0698C28.63 58.4903 29.1676 58.6341 29.5877 58.3915L33.8237 55.9462C34.0256 55.8298 34.1729 55.6377 34.2333 55.4126C34.2936 55.1873 34.262 54.9475 34.1454 54.7455L33.0053 52.7712C33.7369 52.1463 34.419 51.4643 35.044 50.7327L37.0191 51.8728C37.4392 52.1155 37.9767 51.9715 38.2195 51.5511L40.6651 47.3159C40.7816 47.1139 40.8134 46.8741 40.7529 46.6489C40.6925 46.4238 40.5454 46.2318 40.3433 46.1153L38.3725 44.9775C38.6938 44.0708 38.9432 43.1384 39.1174 42.1909H41.3953C41.8808 42.1909 42.2742 41.7975 42.2742 41.312V36.4216C42.2742 35.9361 41.8808 35.5427 41.3953 35.5427ZM40.5164 40.4331H38.37C37.932 40.4331 37.5607 40.7557 37.4997 41.1895C37.3139 42.5092 36.9679 43.8036 36.471 45.0368C36.3073 45.4429 36.4676 45.9076 36.8468 46.1264L38.7034 47.1982L37.1367 49.9112L35.2765 48.8374C34.8975 48.6184 34.4156 48.7119 34.1457 49.056C33.3238 50.1034 32.3759 51.051 31.3283 51.8727C30.984 52.1428 30.8909 52.6249 31.1096 53.0038L32.1834 54.8633L29.4698 56.4298L28.3978 54.5732C28.1788 54.1942 27.7141 54.034 27.3083 54.1975C26.0747 54.6943 24.78 55.0404 23.4604 55.226C23.0265 55.2871 22.7038 55.6582 22.7038 56.0964V58.2424H19.5703V56.0965C19.5703 55.6584 19.2477 55.2872 18.8138 55.2261C17.494 55.0405 16.1993 54.6945 14.9658 54.1976C14.5596 54.034 14.0952 54.1944 13.8763 54.5733L12.8043 56.4299L10.0907 54.8634L11.1646 53.0039C11.3834 52.625 11.2901 52.1428 10.9459 51.8728C9.89848 51.0511 8.95055 50.1034 8.12848 49.0561C7.85848 48.712 7.37648 48.6189 6.99774 48.8375L5.1375 49.9113L3.57082 47.1983L5.42742 46.1265C5.80664 45.9077 5.96695 45.4431 5.80324 45.0369C5.30625 43.8033 4.96008 42.5088 4.77457 41.1896C4.71352 40.7558 4.34238 40.4332 3.90422 40.4332H1.75781V37.3007H3.90422C4.34227 37.3007 4.71352 36.978 4.77457 36.5442C4.96008 35.225 5.30625 33.9306 5.80324 32.697C5.96684 32.2908 5.80664 31.8261 5.42742 31.6073L3.57082 30.5355L5.1375 27.8225L6.99774 28.8963C7.37648 29.1151 7.85848 29.0218 8.12848 28.6778C8.95043 27.6304 9.89836 26.6828 10.9459 25.8611C11.2902 25.5909 11.3834 25.1088 11.1646 24.73L10.0907 22.8704L12.8043 21.304L13.8763 23.1605C14.0952 23.5397 14.5597 23.6999 14.9657 23.5363C16.1998 23.0393 17.4945 22.6932 18.8138 22.5077C19.2476 22.4467 19.5703 22.0755 19.5703 21.6374V19.4914H22.7038V21.6374C22.7038 22.0754 23.0264 22.4467 23.4604 22.5077C24.7797 22.6932 26.0743 23.0393 27.3084 23.5363C27.7144 23.7 28.179 23.5397 28.3979 23.1605L29.47 21.304L32.1836 22.8704L31.1098 24.73C30.891 25.1088 30.9841 25.5911 31.3284 25.8611C32.3759 26.6828 33.3238 27.6305 34.1459 28.6778C34.4159 29.022 34.8979 29.1152 35.2766 28.8963L37.1368 27.8225L38.7034 30.5355L36.8468 31.6073C36.4676 31.8261 36.3073 32.2909 36.471 32.697C36.9679 33.9301 37.3139 35.2246 37.4997 36.5442C37.5607 36.978 37.9318 37.3007 38.37 37.3007H40.5164V40.4331Z" fill="#0A76DB"/>
<path d="M59.1212 9.32074H57.4978C57.3679 8.95559 57.2187 8.59664 57.0514 8.2466L58.1978 7.10273C58.3631 6.93785 58.456 6.71402 58.456 6.48047C58.456 6.24691 58.3631 6.0232 58.1978 5.8582L54.1273 1.79707C53.7842 1.45488 53.229 1.45488 52.8858 1.79707L51.7374 2.94281C51.3856 2.77523 51.025 2.62605 50.6579 2.49609V0.878906C50.6579 0.393398 50.2645 0 49.779 0H44.0224C43.5369 0 43.1435 0.393398 43.1435 0.878906V2.49633C42.7763 2.62617 42.4157 2.77547 42.0639 2.94305L40.9155 1.7973C40.5726 1.45523 40.0171 1.45512 39.674 1.7973L35.6034 5.85844C35.4381 6.02332 35.3452 6.24715 35.3452 6.4807C35.3452 6.71426 35.438 6.93797 35.6034 7.10297L36.7499 8.24684C36.5825 8.59699 36.4334 8.95582 36.3036 9.32098H34.6802C34.1948 9.32098 33.8013 9.71438 33.8013 10.1999V15.9431C33.8013 16.4286 34.1948 16.822 34.6802 16.822H36.3036C36.4333 17.1872 36.5825 17.546 36.7499 17.8962L35.6034 19.04C35.4381 19.2049 35.3452 19.4288 35.3452 19.6623C35.3452 19.8959 35.438 20.1196 35.6034 20.2846L39.674 24.3457C40.0171 24.6879 40.5724 24.6879 40.9155 24.3457L42.0639 23.2C42.4157 23.3675 42.7763 23.5167 43.1435 23.6467V25.2641C43.1435 25.7496 43.5369 26.143 44.0224 26.143H49.779C50.2645 26.143 50.6579 25.7496 50.6579 25.2641V23.6467C51.025 23.5168 51.3856 23.3675 51.7374 23.2L52.8858 24.3457C53.2288 24.6879 53.7843 24.688 54.1273 24.3457L58.1978 20.2846C58.3631 20.1197 58.456 19.8959 58.456 19.6623C58.456 19.4288 58.3631 19.205 58.1978 19.04L57.0514 17.8962C57.2187 17.5461 57.3678 17.1872 57.4978 16.822H59.1212C59.6067 16.822 60.0001 16.4286 60.0001 15.9431V10.1996C60.0001 9.71426 59.6065 9.32074 59.1212 9.32074ZM58.2422 15.064H56.8579C56.4665 15.064 56.1224 15.3227 56.0136 15.6987C55.8189 16.3716 55.5476 17.0244 55.2073 17.6389C55.0172 17.9822 55.0778 18.4098 55.3556 18.687L56.3328 19.662L53.5067 22.4816L52.5265 21.5037C52.2499 21.2275 51.8238 21.1673 51.4815 21.3563C50.8655 21.6957 50.2109 21.9666 49.5358 22.161C49.1594 22.2694 48.9002 22.6138 48.9002 23.0055V24.3847H44.9014V23.0055C44.9014 22.6138 44.6422 22.2694 44.2658 22.161C43.5906 21.9666 42.936 21.6957 42.3201 21.3563C41.9777 21.1672 41.5517 21.2273 41.275 21.5037L40.2949 22.4816L37.4688 19.662L38.446 18.687C38.7237 18.4098 38.7843 17.9821 38.5942 17.6389C38.2537 17.0241 37.9824 16.3713 37.788 15.6988C37.6792 15.3229 37.3351 15.064 36.9437 15.064H35.5593V11.0786H36.9437C37.3351 11.0786 37.6792 10.8198 37.788 10.4438C37.9824 9.77133 38.2537 9.11848 38.5942 8.50359C38.7843 8.16035 38.7237 7.73273 38.446 7.45559L37.4688 6.48059L40.2949 3.66094L41.275 4.63887C41.5518 4.91508 41.978 4.97531 42.3201 4.78629C42.936 4.4468 43.5906 4.17598 44.2658 3.98156C44.6422 3.87316 44.9014 3.52875 44.9014 3.13699V1.75781H48.9002V3.13699C48.9002 3.52875 49.1594 3.87316 49.5358 3.98156C50.2109 4.17598 50.8655 4.4468 51.4815 4.78629C51.824 4.97519 52.2499 4.91519 52.5265 4.63887L53.5067 3.66094L56.3328 6.48059L55.3556 7.45559C55.0778 7.73273 55.0172 8.16047 55.2073 8.50359C55.5476 9.11801 55.8189 9.77086 56.0136 10.4439C56.1224 10.8198 56.4665 11.0786 56.8579 11.0786H58.2422V15.064Z" fill="#F37224"/>
<path d="M46.9007 6.06836C45.7463 6.06836 44.6014 6.35441 43.5896 6.8957C43.1616 7.12457 43.0002 7.65719 43.2291 8.08516C43.4581 8.51313 43.9904 8.67484 44.4186 8.44562C45.1763 8.04039 46.0346 7.82617 46.9007 7.82617C49.8007 7.82617 52.1599 10.1791 52.1599 13.0711C52.1599 15.9633 49.8007 18.3162 46.9007 18.3162C44.0008 18.3162 41.6416 15.9633 41.6416 13.0711C41.6416 12.2488 41.8268 11.462 42.1919 10.7322C42.4092 10.2981 42.2334 9.77008 41.7992 9.55293C41.3649 9.3359 40.8371 9.51145 40.62 9.94563C40.1314 10.9218 39.8838 11.9734 39.8838 13.0712C39.8838 16.9326 43.0316 20.0741 46.9007 20.0741C50.7699 20.0741 53.9177 16.9326 53.9177 13.0712C53.9177 9.20992 50.7699 6.06836 46.9007 6.06836Z" fill="#F37224"/>
<path d="M21.137 26.2949C14.2039 26.2949 8.56348 31.9345 8.56348 38.8663C8.56348 40.5631 8.89606 42.2095 9.55195 43.76C9.74098 44.2069 10.2567 44.416 10.7038 44.227C11.1509 44.0379 11.3599 43.5221 11.1708 43.0751C10.607 41.7425 10.3212 40.3265 10.3212 38.8663C10.3212 32.9037 15.1731 28.0527 21.1369 28.0527C27.1007 28.0527 31.9526 32.9038 31.9526 38.8663C31.9526 44.8288 27.1007 49.6798 21.1369 49.6798C17.9402 49.6798 14.9242 48.2766 12.8623 45.8301C12.5495 45.4589 11.9951 45.4116 11.6238 45.7245C11.2527 46.0373 11.2054 46.5917 11.5182 46.9628C13.915 49.8066 17.4209 51.4376 21.137 51.4376C28.0702 51.4376 33.7105 45.7981 33.7105 38.8663C33.7105 31.9345 28.07 26.2949 21.137 26.2949Z" fill="#0A76DB"/>
<path d="M21.1373 31.7902C21.8587 31.7902 22.5701 31.8981 23.2514 32.1109C23.7149 32.2557 24.2077 31.9973 24.3524 31.534C24.4971 31.0706 24.2388 30.5777 23.7756 30.4329C22.9243 30.167 22.0368 30.0322 21.1375 30.0322C16.2654 30.0322 12.3018 33.9953 12.3018 38.8666C12.3018 43.7378 16.2655 47.7009 21.1375 47.7009C26.0095 47.7009 29.9733 43.7379 29.9733 38.8666C29.9733 36.5719 29.0974 34.3975 27.5072 32.7438C27.1707 32.3943 26.6142 32.3831 26.2645 32.7197C25.9146 33.0561 25.9038 33.6125 26.2403 33.9623C27.5141 35.2868 28.2156 37.0284 28.2156 38.8666C28.2156 42.7686 25.0404 45.9431 21.1376 45.9431C17.2348 45.9431 14.0597 42.7686 14.0597 38.8666C14.0597 34.9647 17.2345 31.7902 21.1373 31.7902Z" fill="#0A76DB"/>
<path d="M59.1213 34.5083H58.403C58.2521 33.4425 57.8311 32.4623 57.2116 31.6395L57.7215 31.1298C58.0649 30.7865 58.0649 30.23 57.7216 29.8869C57.3784 29.5438 56.8219 29.5435 56.4788 29.8868L55.9688 30.3968C55.1459 29.7773 54.1655 29.3563 53.0993 29.2054V28.4873C53.0993 28.0018 52.7059 27.6084 52.2204 27.6084C51.7349 27.6084 51.3415 28.0018 51.3415 28.4873V29.2054C50.2754 29.3563 49.2949 29.7773 48.472 30.3968L47.9619 29.8868C47.6184 29.5434 47.0619 29.5435 46.719 29.8869C46.3758 30.2302 46.3758 30.7866 46.7191 31.1298L47.2291 31.6396C46.6097 32.4624 46.1886 33.4426 46.0378 34.5083H45.3193C44.8338 34.5083 44.4404 34.9017 44.4404 35.3872C44.4404 35.8727 44.8338 36.2661 45.3193 36.2661H46.0378C46.1886 37.3319 46.6097 38.312 47.2291 39.1347L46.7193 39.6445C46.376 39.9876 46.3759 40.5441 46.7191 40.8874C46.8907 41.0591 47.1157 41.1448 47.3407 41.1448C47.5656 41.1448 47.7905 41.0591 47.9621 40.8875L48.4723 40.3775C49.2952 40.997 50.2755 41.418 51.3417 41.5688V42.287C51.3417 42.7725 51.7351 43.1659 52.2206 43.1659C52.7061 43.1659 53.0995 42.7725 53.0995 42.287V41.5688C54.1656 41.418 55.146 40.9971 55.9689 40.3776L56.4789 40.8876C56.6505 41.0592 56.8754 41.145 57.1003 41.145C57.3253 41.145 57.5503 41.0592 57.7219 40.8875C58.0651 40.5441 58.0651 39.9877 57.7218 39.6446L57.2119 39.1348C57.8313 38.3121 58.2524 37.332 58.4032 36.2662H59.1216C59.6071 36.2662 60.0005 35.8728 60.0005 35.3873C60.0005 34.9018 59.6067 34.5083 59.1213 34.5083ZM52.2203 39.8727C49.7464 39.8727 47.7337 37.8604 47.7337 35.3872C47.7337 32.9138 49.7464 30.9016 52.2203 30.9016C54.6941 30.9016 56.7068 32.9138 56.7068 35.3872C56.7068 37.8604 54.6941 39.8727 52.2203 39.8727Z" fill="#F37224"/>
<path d="M52.2198 32.4746C50.6138 32.4746 49.3071 33.781 49.3071 35.3871C49.3071 36.9929 50.6138 38.2994 52.2198 38.2994C53.8259 38.2994 55.1325 36.993 55.1325 35.3871C55.1326 33.7811 53.8259 32.4746 52.2198 32.4746ZM52.2198 36.5415C51.5829 36.5415 51.0649 36.0236 51.0649 35.387C51.0649 34.7503 51.583 34.2323 52.2198 34.2323C52.8566 34.2323 53.3747 34.7503 53.3747 35.387C53.3747 36.0236 52.8567 36.5415 52.2198 36.5415Z" fill="#F37224"/>
</g>
<defs>
<clipPath id="clip0_1282_18981">
<rect width="60" height="60" fill="white"/>
</clipPath>
</defs>
</svg>
